# xmcd CD database file
#
# Track frame offsets:
#	150
#	24777
#	45974
#	73390
#	93509
#	119200
#	147677
#	176164
#	204433
#	235598
#	259773
#	282193
#	307374
#
# Disc length: 4561 seconds
#
# Revision: 4
# Processed by: cddbd v1.5.1PL0 Copyright (c) Steve Scherf et al.
# Submitted via: CDex 1.51
#
DISCID=c711cf0d
DTITLE=Professor Oz - One
DYEAR=1900
DGENRE=
TTITLE0=Introz
TTITLE1=3rd Millenium Groove
TTITLE2=Whales Race
TTITLE3=Journey
TTITLE4=Silicon Nights
TTITLE5=2 Kissed
TTITLE6=Albuquerque Station
TTITLE7=Cup 98
TTITLE8=Thin Limit
TTITLE9=The Visualizer
TTITLE10=Waves And Sun
TTITLE11=Bibi
TTITLE12=Waves and Sun - African Waves Mix
EXTD=
EXTT0=
EXTT1=
EXTT2=
EXTT3=
EXTT4=
EXTT5=
EXTT6=
EXTT7=
EXTT8=
EXTT9=
EXTT10=
EXTT11=
EXTT12=
PLAYORDER=
